<svg fill="none" height="48" viewBox="0 0 165 48" width="165" xmlns="http://www.w3.org/2000/svg" xmlns:xlink="http://www.w3.org/1999/xlink"><filter id="a" color-interpolation-filters="sRGB" filterUnits="userSpaceOnUse" height="54" width="48" x="0" y="-3"><feFlood flood-opacity="0" result="BackgroundImageFix"/><feBlend in="SourceGraphic" in2="BackgroundImageFix" mode="normal" result="shape"/><feColorMatrix in="SourceAlpha" result="hardAlpha" type="matrix" values="0 0 0 0 0 0 0 0 0 0 0 0 0 0 0 0 0 0 127 0"/><feOffset dy="-3"/><feGaussianBlur stdDeviation="1.5"/><feComposite in2="hardAlpha" k2="-1" k3="1" operator="arithmetic"/><feColorMatrix type="matrix" values="0 0 0 0 0 0 0 0 0 0 0 0 0 0 0 0 0 0 0.1 0"/><feBlend in2="shape" mode="normal" result="effect1_innerShadow_3046_38731"/><feColorMatrix in="SourceAlpha" result="hardAlpha" type="matrix" values="0 0 0 0 0 0 0 0 0 0 0 0 0 0 0 0 0 0 127 0"/><feOffset dy="3"/><feGaussianBlur stdDeviation="1.5"/><feComposite in2="hardAlpha" k2="-1" k3="1" operator="arithmetic"/><feColorMatrix type="matrix" values="0 0 0 0 1 0 0 0 0 1 0 0 0 0 1 0 0 0 0.1 0"/><feBlend in2="effect1_innerShadow_3046_38731" mode="normal" result="effect2_innerShadow_3046_38731"/><feColorMatrix in="SourceAlpha" result="hardAlpha" type="matrix" values="0 0 0 0 0 0 0 0 0 0 0 0 0 0 0 0 0 0 127 0"/><feMorphology in="SourceAlpha" operator="erode" radius="1" result="effect3_innerShadow_3046_38731"/><feOffset/><feComposite in2="hardAlpha" k2="-1" k3="1" operator="arithmetic"/><feColorMatrix type="matrix" values="0 0 0 0 0.0627451 0 0 0 0 0.0941176 0 0 0 0 0.156863 0 0 0 0.24 0"/><feBlend in2="effect2_innerShadow_3046_38731" mode="normal" result="effect3_innerShadow_3046_38731"/></filter><filter id="b" color-interpolation-filters="sRGB" filterUnits="userSpaceOnUse" height="42" width="36" x="6" y="5.25"><feFlood flood-opacity="0" result="BackgroundImageFix"/><feColorMatrix in="SourceAlpha" result="hardAlpha" type="matrix" values="0 0 0 0 0 0 0 0 0 0 0 0 0 0 0 0 0 0 127 0"/><feMorphology in="SourceAlpha" operator="erode" radius="1.5" result="effect1_dropShadow_3046_38731"/><feOffset dy="2.25"/><feGaussianBlur stdDeviation="2.25"/><feComposite in2="hardAlpha" operator="out"/><feColorMatrix type="matrix" values="0 0 0 0 0.141176 0 0 0 0 0.141176 0 0 0 0 0.141176 0 0 0 0.1 0"/><feBlend in2="BackgroundImageFix" mode="normal" result="effect1_dropShadow_3046_38731"/><feBlend in="SourceGraphic" in2="effect1_dropShadow_3046_38731" mode="normal" result="shape"/></filter><linearGradient id="c" gradientUnits="userSpaceOnUse" x1="24" x2="26" y1=".000001" y2="48"><stop offset="0" stop-color="#fff" stop-opacity="0"/><stop offset="1" stop-color="#fff" stop-opacity=".12"/></linearGradient><linearGradient id="d" gradientUnits="userSpaceOnUse" x1="24" x2="24" y1="9" y2="39"><stop offset="0" stop-color="#fff" stop-opacity=".8"/><stop offset="1" stop-color="#fff" stop-opacity=".5"/></linearGradient><linearGradient id="e" gradientUnits="userSpaceOnUse" x1="24" x2="24" y1="0" y2="48"><stop offset="0" stop-color="#fff" stop-opacity=".12"/><stop offset="1" stop-color="#fff" stop-opacity="0"/></linearGradient><clipPath id="f"><rect height="48" rx="12" width="48"/></clipPath><g filter="url(#a)"><g clip-path="url(#f)"><rect fill="#155eef" height="48" rx="12" width="48"/><path d="m0 0h48v48h-48z" fill="url(#c)"/><g filter="url(#b)"><path clip-rule="evenodd" d="m24 39c8.2843 0 15-6.7157 15-15s-6.7157-15-15-15-15 6.7157-15 15 6.7157 15 15 15zm4.6795-23.0124c.2278-.8091-.5574-1.2875-1.2745-.7766l-10.0102 7.1312c-.7776.554-.6553 1.6578.1838 1.6578h2.6359v-.0204h5.1374l-4.186 1.477-1.8454 6.5558c-.2277.8091.5574 1.2875 1.2745.7766l10.0102-7.1311c.7777-.5541.6553-1.6579-.1838-1.6579h-3.9973z" fill="url(#d)" fill-rule="evenodd"/></g></g><rect height="46" rx="11" stroke="url(#e)" stroke-width="2" width="46" x="1" y="1"/></g><g fill="#0A0D12"><path d="m138.997 16.8721c.448.4106.989.616 1.624.616.653 0 1.194-.2054 1.624-.616.429-.4107.644-.952.644-1.624s-.215-1.2134-.644-1.624c-.43-.4107-.971-.616-1.624-.616-.635 0-1.176.2053-1.624.616-.43.4106-.644.952-.644 1.624s.214 1.2133.644 1.624z"/><path clip-rule="evenodd" d="m71.984 32.3841c-.8773.4106-1.904.616-3.08.616h-8.904v-19.6h8.792c1.1947 0 2.2307.2053 3.108.616.896.392 1.5867.9613 2.072 1.708.504.728.756 1.6053.756 2.632v.28c0 .896-.168 1.6333-.504 2.212-.336.56-.7373.9986-1.204 1.316-.448.2986-.8773.5133-1.288.644v.504c.4107.112.8587.3266 1.344.644.4853.2986.896.7373 1.232 1.316.3547.5786.532 1.3346.532 2.268v.28c0 1.0826-.252 2.016-.756 2.8-.504.7653-1.204 1.3533-2.1 1.764zm-1.568-6.972c-.4853-.392-1.1387-.588-1.96-.588h-4.76v4.816h4.76c.8027 0 1.4467-.196 1.932-.588.504-.392.756-.952.756-1.68v-.28c0-.728-.2427-1.288-.728-1.68zm-.112-8.064c-.4853-.392-1.12-.588-1.904-.588h-4.704v4.704h4.704c.7653 0 1.3907-.196 1.876-.588.504-.392.756-.9334.756-1.624v-.28c0-.7094-.2427-1.2507-.728-1.624z" fill-rule="evenodd"/><path clip-rule="evenodd" d="m83.1755 33.3921c-1.3814 0-2.6227-.28-3.724-.84-1.1014-.56-1.9694-1.372-2.604-2.436-.6347-1.064-.952-2.3427-.952-3.836v-.448c0-1.4934.3173-2.772.952-3.836.6346-1.064 1.5026-1.876 2.604-2.436 1.1013-.56 2.3426-.84 3.724-.84 1.3813 0 2.6226.28 3.724.84 1.1013.56 1.9693 1.372 2.604 2.436.6346 1.064.952 2.3426.952 3.836v.448c0 1.4933-.3174 2.772-.952 3.836-.6347 1.064-1.5027 1.876-2.604 2.436-1.1014.56-2.3427.84-3.724.84zm0-3.136c1.0826 0 1.9786-.3454 2.688-1.036.7093-.7094 1.064-1.7174 1.064-3.024v-.28c0-1.3067-.3547-2.3054-1.064-2.996-.6907-.7094-1.5867-1.064-2.688-1.064-1.0827 0-1.9787.3546-2.688 1.064-.7094.6906-1.064 1.6893-1.064 2.996v.28c0 1.3066.3546 2.3146 1.064 3.024.7093.6906 1.6053 1.036 2.688 1.036z" fill-rule="evenodd"/><path d="m103.669 33.0001c-.914 0-1.661-.28-2.239-.84-.561-.5787-.84-1.344-.84-2.296v-7.84h-3.4725v-2.912h3.4725v-4.312h3.528v4.312h3.807v2.912h-3.807v7.224c0 .56.261.84.784.84h2.688v2.912z"/><path d="m111.035 32.2161c1.157.784 2.641 1.176 4.452 1.176 1.773 0 3.183-.392 4.228-1.176 1.064-.8027 1.596-1.932 1.596-3.388 0-.9707-.252-1.736-.756-2.296-.485-.5787-1.157-1.0174-2.016-1.316-.84-.3174-1.783-.5694-2.828-.756l-.784-.14c-.635-.112-1.139-.2707-1.512-.476-.373-.224-.56-.56-.56-1.008 0-.4107.177-.728.532-.952.355-.2427.868-.364 1.54-.364s1.232.1493 1.68.448c.467.2986.775.8026.924 1.512l3.276-1.008c-.317-1.12-.989-2.0254-2.016-2.716-1.027-.6907-2.315-1.036-3.864-1.036-1.643 0-2.968.3733-3.976 1.12-1.008.728-1.512 1.7826-1.512 3.164 0 .9146.243 1.6613.728 2.24.485.5786 1.129 1.036 1.932 1.372.803.3173 1.689.5693 2.66.756l.784.14c.821.1493 1.419.3453 1.792.588.373.224.56.5506.56.98 0 .4293-.196.7933-.588 1.092-.392.28-.999.42-1.82.42-.541 0-1.045-.0747-1.512-.224-.448-.168-.831-.4387-1.148-.812-.299-.3734-.513-.8867-.644-1.54l-3.248.84c.243 1.456.943 2.576 2.1 3.36z"/><path d="m127.427 22.9481c-.598.7093-.896 1.708-.896 2.996v7.056h-3.528v-19.6h3.528v7.42h.504c.149-.2987.382-.5974.7-.896.317-.2987.737-.5414 1.26-.728.541-.2054 1.222-.308 2.044-.308 1.082 0 2.025.252 2.828.756.821.4853 1.456 1.1666 1.904 2.044.448.8586.672 1.8666.672 3.024v8.288h-3.528v-8.008c0-1.0454-.262-1.8294-.784-2.352-.504-.5227-1.232-.784-2.184-.784-1.083 0-1.923.364-2.52 1.092z"/><path d="m158.496 32.1601c-.56-.5787-.84-1.344-.84-2.296v-7.84h-6.938v10.976h-3.528v-10.976h-3.528v-2.912h3.528v-2.576c0-.952.28-1.708.84-2.268.579-.5787 1.325-.868 2.24-.868h3.64v2.912h-2.408c-.523 0-.784.28-.784.84v1.96h6.938v-4.312h3.528v4.312h3.808v2.912h-3.808v7.224c0 .56.261.84.784.84h2.688v2.912h-3.92c-.915 0-1.661-.28-2.24-.84z"/><path d="m138.857 19.1121v13.888h3.528v-13.888z"/><path d="m92.312 13.4001v19.6h3.528v-19.6z"/></g></svg>